<svg id="Layer_1" data-name="Layer 1" xmlns="http://www.w3.org/2000/svg" viewBox="0 0 895 58"><defs><style>.cls-1{fill:#f5fafd;}</style></defs><title>nav</title><path class="cls-1" d="M5.933,7.342H16.852L39.591,40.28V7.342H47.15v41.4H36.171L13.492,15.682V48.74H5.933Z"/><path class="cls-1" d="M92.512,41.541v-27l7.2-7.2H128.15l7.2,7.2v27l-7.2,7.2H99.712Zm30.839,1.14,3.66-3.66V17.062l-3.66-3.661H104.512l-3.66,3.661V39.021l3.66,3.66Z"/><path class="cls-1" d="M179.092,42.74V36.98h8.34v3.481l2.339,2.34h19.62l2.58-2.58v-7.38l-1.92-1.92h-25.26l-5.579-5.58V13.821l6.479-6.479H214.13l6,6v5.639h-8.34V15.562l-2.34-2.34H190.131l-2.52,2.58v7.019l1.861,1.861H214.79l5.52,5.579v12l-6.419,6.479h-28.8Z"/><path class="cls-1" d="M264.651,41.541V7.342h8.34V38.9l3.659,3.661h17.039L297.35,38.9V7.342h8.339v34.2l-7.2,7.2H271.851Z"/><path class="cls-1" d="M350.51,41.541v-27l7.2-7.2h27.959l6.72,6.72v7.019h-8.22v-4.5l-3.18-3.181H362.51l-3.66,3.661V39.081l3.66,3.6h18.479l3.18-3.18v-4.74h8.22v7.26l-6.72,6.719H357.71Z"/><path class="cls-1" d="M436.97,7.342h8.339V24.8h24.179V7.342h8.4v41.4h-8.4V31.461H445.309V48.74H436.97Z"/><path class="cls-1" d="M536.809,13.7H520.43V7.342h41.038V13.7h-16.32V48.74h-8.339Z"/><path class="cls-1" d="M604.128,7.342h8.34V24.8h24.179V7.342h8.4v41.4h-8.4V31.461H612.468V48.74h-8.34Z"/><path class="cls-1" d="M689.208,43.1h9.84V12.922h-9.84V7.342h28.079v5.58h-9.84V43.1h9.84V48.74H689.208Z"/><path class="cls-1" d="M761.567,7.342h10.92l22.74,32.938V7.342h7.559v41.4H791.807L769.128,15.682V48.74h-7.561Z"/><path class="cls-1" d="M848.268,41.541v-27l7.2-7.2h28.619l6.18,6.12v5.7h-8.34v-3.42l-2.34-2.34H860.268l-3.661,3.661V39.2l3.661,3.66h18.838l3.061-3.12V32.361h-15v-5.88h23.4v15.3l-6.96,6.96H855.468Z"/></svg>